{
    "asset" : {
        "generator" : "Khronos glTF Blender I/O v1.0.5",
        "version" : "2.0"
    },
    "scene" : 0,
    "scenes" : [
        {
            "name" : "Scene",
            "nodes" : [
                0
            ]
        }
    ],
    "nodes" : [
        {
            "mesh" : 0,
            "name" : "tree"
        }
    ],
    "meshes" : [
        {
            "name" : "wood",
            "primitives" : [
                {
                    "attributes" : {
                        "POSITION" : 0,
                        "NORMAL" : 1,
                        "TEXCOORD_0" : 2
                    },
                    "indices" : 3
                }
            ]
        }
    ],
    "accessors" : [
        {
            "bufferView" : 0,
            "componentType" : 5126,
            "count" : 2156,
            "max" : [
                6.124287128448486,
                14.0740327835083,
                6.469954013824463
            ],
            "min" : [
                -5.647839546203613,
                -0.021687984466552734,
                -4.200231075286865
            ],
            "type" : "VEC3"
        },
        {
            "bufferView" : 1,
            "componentType" : 5126,
            "count" : 2156,
            "type" : "VEC3"
        },
        {
            "bufferView" : 2,
            "componentType" : 5126,
            "count" : 2156,
            "type" : "VEC2"
        },
        {
            "bufferView" : 3,
            "componentType" : 5123,
            "count" : 3360,
            "type" : "SCALAR"
        }
    ],
    "bufferViews" : [
        {
            "buffer" : 0,
            "byteLength" : 25872,
            "byteOffset" : 0
        },
        {
            "buffer" : 0,
            "byteLength" : 25872,
            "byteOffset" : 25872
        },
        {
            "buffer" : 0,
            "byteLength" : 17248,
            "byteOffset" : 51744
        },
        {
            "buffer" : 0,
            "byteLength" : 6720,
            "byteOffset" : 68992
        }
    ],
    "buffers" : [
        {
            "byteLength" : 75712,
            "uri" : "data:application/octet-stream;base64,"
        }
    ]
}
